<svg xmlns="http://www.w3.org/2000/svg" xmlns:xlink="http://www.w3.org/1999/xlink" width="192" height="118.387" viewBox="0 0 192 118.387">
  <defs>
    <clipPath id="clip-path">
      <rect id="Rectangle_20326" data-name="Rectangle 20326" width="167.337" height="117.071" fill="none"/>
    </clipPath>
    <clipPath id="clip-path-2">
      <rect id="Rectangle_20283" data-name="Rectangle 20283" width="167.336" height="117.071" fill="none"/>
    </clipPath>
    <clipPath id="clip-path-3">
      <path id="Path_147080" data-name="Path 147080" d="M123.048,234.95c-12.188,28.572-30.64,16.276-49.037,3.98C62.285,231.092,50.58,223.254,40.535,226a45.122,45.122,0,0,0-2.769,19.329c2.716,35.41,66.5,39.657,101.913,36.744,31.482-2.589,60.985-27.064,61.024-52.068v-.1a31.167,31.167,0,0,0-.369-4.751q-.107-.691-.242-1.377a24.632,24.632,0,0,0-1.111-2.879c-3.9-8.4-18.657-18.278-34.958-18.276-14.675,0-30.6,8.013-40.975,32.326" transform="translate(-37.634 -202.624)" fill="none"/>
    </clipPath>
    <linearGradient id="linear-gradient" x1="0.022" y1="0.934" x2="0.023" y2="0.934" gradientUnits="objectBoundingBox">
      <stop offset="0" stop-color="#e1f1ff"/>
      <stop offset="0.999" stop-color="#f5faff"/>
      <stop offset="1" stop-color="#f5faff"/>
    </linearGradient>
    <clipPath id="clip-path-4">
      <path id="Path_147090" data-name="Path 147090" d="M120.809.026C74.6.913,35.048,30.269,37.764,65.679s66.5,39.658,101.913,36.744c33.517-2.756,64.792-30.319,60.654-56.918C196.459,20.613,168.211,0,123.626,0c-.933,0-1.87.009-2.817.027" transform="translate(-37.632 0.001)" fill="none"/>
    </clipPath>
    <clipPath id="clip-path-5">
      <rect id="Rectangle_20288" data-name="Rectangle 20288" width="25.668" height="2.332" fill="none"/>
    </clipPath>
    <clipPath id="clip-path-6">
      <path id="Path_147084" data-name="Path 147084" d="M986.756,345.251v2.332h-24.1l-1.57-2.332Z" transform="translate(-961.089 -345.251)" fill="none" clip-rule="evenodd"/>
    </clipPath>
    <linearGradient id="linear-gradient-2" x1="-4.231" y1="22.426" x2="-4.227" y2="22.426" gradientUnits="objectBoundingBox">
      <stop offset="0" stop-color="#31363b"/>
      <stop offset="0.127" stop-color="#3d4247"/>
      <stop offset="0.483" stop-color="#5b6166"/>
      <stop offset="0.787" stop-color="#6d7479"/>
      <stop offset="0.999" stop-color="#747b80"/>
      <stop offset="1" stop-color="#747b80"/>
    </linearGradient>
    <clipPath id="clip-path-7">
      <rect id="Rectangle_20293" data-name="Rectangle 20293" width="10.697" height="15.711" fill="none"/>
    </clipPath>
    <clipPath id="clip-path-8">
      <path id="Path_147086" data-name="Path 147086" d="M789.026,217.906l-10.65,13.646-.046-3.466,9.214-12.245Z" transform="translate(-778.329 -215.841)" fill="none" clip-rule="evenodd"/>
    </clipPath>
    <linearGradient id="linear-gradient-3" x1="-5.088" y1="4.989" x2="-5.081" y2="4.989" xlink:href="#linear-gradient-2"/>
    <clipPath id="clip-path-9">
      <path id="Path_147091" data-name="Path 147091" d="M680.243,435.7c2.145,1.956,18.54,18.011,21.9,20.921s6.6,2.685,11.5,1.284a41.309,41.309,0,0,1,15.284-.71c3.3.568,7.533,5.747,9.267,7.877a11.31,11.31,0,0,0,3.2,2.868s8.91-11.49,9.357-13.229-5.746-3.919-7.648-4.769-15.251-5.647-19.268-5.794c-1.535-.057-5.392.2-9.646.457-6.877.416-14.793.832-15.629-.081-1.352-1.478-12.253-7.879-15.136-9.436a7.559,7.559,0,0,0-3.2-1.03c-.943,0-1.178.549.021,1.642" transform="translate(-679.428 -434.057)" fill="none"/>
    </clipPath>
    <linearGradient id="linear-gradient-4" x1="-0.969" y1="1.625" x2="-0.968" y2="1.625" gradientUnits="objectBoundingBox">
      <stop offset="0" stop-color="#fdd3c3"/>
      <stop offset="0.208" stop-color="#fdcbb8"/>
      <stop offset="0.672" stop-color="#fdbda5"/>
      <stop offset="0.999" stop-color="#fdb99f"/>
      <stop offset="1" stop-color="#fdb99f"/>
    </linearGradient>
    <clipPath id="clip-path-12">
      <path id="Path_147104" data-name="Path 147104" d="M63.256,308.422c-.131,1.282.835,2.407,1.076,3.128a12.818,12.818,0,0,1,.356,2.178,64.792,64.792,0,0,0,1.812,9.555c1.058,3.314,4.345,5.511,5.2,6.141.447.328.968-1.346,1.247-3.019.257-1.539.309-3.078-.09-3.06-.583.025-2.482-1.844-3.98-4.257a31.908,31.908,0,0,1-3.389-7.444,12.618,12.618,0,0,0-.523-2c-.2-.559-.229-.418-.212.157.016.534.159.914-.335.22-.534-.752-.855-2.025-1.035-2.025-.057,0-.1.125-.131.431" transform="translate(-63.244 -307.991)" fill="none"/>
    </clipPath>
    <clipPath id="clip-path-14">
      <path id="Path_147107" data-name="Path 147107" d="M217.883,629.884c-.118,4.154,1.35,32.324,1.718,33.809,0,0,2.911.853,4.046.315s1.946-32.738,1.8-33.636c-.093-.59-3.281-2.409-5.489-2.409a1.819,1.819,0,0,0-2.079,1.921" transform="translate(-217.876 -627.963)" fill="none"/>
    </clipPath>
    <clipPath id="clip-path-16">
      <path id="Path_147110" data-name="Path 147110" d="M132.528,621.5c-.717,2.612-4.462,33.618-3.625,34.806s4.155.564,4.155.564c.634-1.469,7.665-32.722,8.013-34.273.23-1.025-3.273-2.32-5.876-2.319-1.33,0-2.425.338-2.667,1.221" transform="translate(-128.782 -620.282)" fill="none"/>
    </clipPath>
    <clipPath id="clip-path-18">
      <path id="Path_147113" data-name="Path 147113" d="M149.758,459.834a16.275,16.275,0,0,1,.063,5.859c-.259,2.187-.725,4.332-1.231,4.878a16.218,16.218,0,0,0,7.689,3.056c4.09.278,7.608.206,8.679-.434s2.336-22.871,1.114-22.574-4.3-.238-6.145-.66c-2.053-.471-5.565-.348-6.713-.566a.257.257,0,0,0-.048,0c-1.222,0-3.828,8.395-3.408,10.445" transform="translate(-148.59 -449.389)" fill="none"/>
    </clipPath>
    <clipPath id="clip-path-20">
      <path id="Path_147117" data-name="Path 147117" d="M218.5,434.572c.114.526-1.257,1.947-1.257,1.947a4.493,4.493,0,0,0,2.02,1.406c.625.123,2.384-.635,1.962-1.074s-.4-1.091-.568-1.852c-.1-.47-.948-.723-1.551-.723-.371,0-.65.1-.606.3" transform="translate(-217.24 -434.276)" fill="none"/>
    </clipPath>
    <clipPath id="clip-path-22">
      <path id="Path_147124" data-name="Path 147124" d="M413.662,188.709c3.345,3.519,5.474,3.242,5.871,3.067s4.223-6.745,3.665-7.633-3.407-1.895-4.726-2.681a61.46,61.46,0,0,0-6.107-2.755.177.177,0,0,0-.061-.011c-.872,0-1.911,6.572,1.357,10.013" transform="translate(-411.429 -178.696)" fill="none"/>
    </clipPath>
    <clipPath id="clip-path-24">
      <rect id="Rectangle_20305" data-name="Rectangle 20305" width="8.32" height="58.999" fill="none"/>
    </clipPath>
    <clipPath id="clip-path-25">
      <path id="Path_147129" data-name="Path 147129" d="M318.653,467.9c-.026,3.933-.266,39.369-.646,39.959-1.408,2.187-6.516,1.993-7.269.345a9.956,9.956,0,0,1-.4-1.722c6.378,6.554,6.157-13.593,5.3-24.488s1.527-14.559,2.928-31.522c.086,6.754.1,15.1.082,17.429" transform="translate(-310.339 -450.471)" fill="none" clip-rule="evenodd"/>
    </clipPath>
    <linearGradient id="linear-gradient-5" x1="-4.225" y1="1.054" x2="-4.211" y2="1.054" gradientUnits="objectBoundingBox">
      <stop offset="0" stop-color="#485057"/>
      <stop offset="0.999" stop-color="#747b80"/>
      <stop offset="1" stop-color="#747b80"/>
    </linearGradient>
    <clipPath id="clip-path-26">
      <path id="Path_147135" data-name="Path 147135" d="M285.125,169.362c-1.179.142-6.655.492-8.219,1.462s.194,18.245,1.041,20.9,10.662,2.585,14.609,1.879,3.439-8.757,3.518-10.806-1.838-10.913-2.754-11.933c-.828-.924-5.894-1.524-7.729-1.524a4.107,4.107,0,0,0-.466.021" transform="translate(-276.28 -169.341)" fill="none"/>
    </clipPath>
    <clipPath id="clip-path-28">
      <path id="Path_147138" data-name="Path 147138" d="M360.346,139.627c.237.871-1.152,3.144-1.152,3.144.2.251,1.05,2.3,2.436,2.138s1.584-1.745,1.584-1.745c-.995-.384-.79-1.4-.787-2.113,0-.568-1.458-1.679-1.943-1.679-.126,0-.186.075-.137.254" transform="translate(-359.194 -139.373)" fill="none"/>
    </clipPath>
    <clipPath id="clip-path-30">
      <path id="Path_147145" data-name="Path 147145" d="M587.854,930.739c-.057,1.161-1.88,1.911-3.383,2.558-1.583.683-1.128.963-.718,1a14.806,14.806,0,0,0,3.162-.146c1.441-.186,3.421.038,3.114-1.145a11.477,11.477,0,0,1-.31-3.474c.012-.434-.179-.622-.443-.622a1.889,1.889,0,0,0-1.422,1.83" transform="translate(-583.362 -928.909)" fill="none"/>
    </clipPath>
    <clipPath id="clip-path-32">
      <path id="Path_147148" data-name="Path 147148" d="M462.533,932.231c-.06,1.161-1.974,1.911-3.553,2.558-1.662.683-1.241.974-.813.912a9.823,9.823,0,0,1,1.075,0,17.227,17.227,0,0,0,2.306-.056c1.514-.186,3.593.038,3.27-1.145a10.95,10.95,0,0,1-.326-3.474c.013-.434-.188-.622-.465-.622a1.916,1.916,0,0,0-1.494,1.83" transform="translate(-457.783 -930.401)" fill="none"/>
    </clipPath>
    <clipPath id="clip-path-34">
      <path id="Path_147151" data-name="Path 147151" d="M471.035,344.9c-.724,2.309-4.685,19.907-4.866,23.032s1.027,41.962,1.638,43.283,3.521.779,4.454-.153,3.29-39.613,3.074-43.913.944-22.869-.194-23.663a2.988,2.988,0,0,0-1.668-.512,2.477,2.477,0,0,0-2.437,1.926" transform="translate(-466.15 -342.974)" fill="none"/>
    </clipPath>
    <clipPath id="clip-path-35">
      <rect id="Rectangle_20311" data-name="Rectangle 20311" width="5.305" height="59.171" fill="none"/>
    </clipPath>
    <clipPath id="clip-path-36">
      <path id="Path_147155" data-name="Path 147155" d="M526.828,344.121c-.466.824-.375,22.659.282,27.216s8.03,38.484,8.419,39.62,2.47.658,3.562-.045.308-16.055-.074-20.12-2.364-16.614-2.082-20.381-1.851-24.479-2.366-26.385c-.2-.756-1.392-1.027-2.78-1.027-2.109,0-4.68.625-4.961,1.122" transform="translate(-526.536 -342.999)" fill="none"/>
    </clipPath>
    <clipPath id="clip-path-37">
      <path id="Path_147157" data-name="Path 147157" d="M532.156,344.121c-.466.824-.375,22.659.282,27.216s8.03,38.484,8.419,39.62,2.47.658,3.562-.045.308-16.055-.074-20.12-2.364-16.614-2.082-20.381-1.851-24.479-2.366-26.385c-.2-.756-1.392-1.027-2.78-1.027-2.109,0-4.68.625-4.961,1.122" transform="translate(-531.865 -342.999)" fill="none"/>
    </clipPath>
    <clipPath id="clip-path-38">
      <rect id="Rectangle_20312" data-name="Rectangle 20312" width="9.064" height="58.929" fill="none"/>
    </clipPath>
    <clipPath id="clip-path-40">
      <path id="Path_147161" data-name="Path 147161" d="M499.127,211.586a7.359,7.359,0,0,0-4.643,2.185c-1.249,1.446-1.661,6.288-1.234,7.392A15.412,15.412,0,0,1,494.6,225.2c.054,1.23-1.069,3.959-.148,4.594s11.177.359,11.177.359,2.168-13.752.958-15.667a4.142,4.142,0,0,0-2.664-2.284,15.237,15.237,0,0,0-4.058-.649,7.163,7.163,0,0,0-.741.036" transform="translate(-493.087 -211.55)" fill="none"/>
    </clipPath>
    <clipPath id="clip-path-42">
      <path id="Path_147164" data-name="Path 147164" d="M542.813,192.662a5.166,5.166,0,0,1-.218,1.521c.134.421.3,1.112.983,1.162,1.159.084,1.3-1.193,1.3-1.193-.514-.329-.2-1.668-.2-2.131,0-.112-.149-.162-.361-.162-.552,0-1.537.337-1.5.8" transform="translate(-542.595 -191.858)" fill="none"/>
    </clipPath>
    <clipPath id="clip-path-44">
      <path id="Path_147170" data-name="Path 147170" d="M384.38,718.763c.134,4.118,3.012,29.091,3.012,29.091l2.66-.04s.722-28.166.67-29.336c-.031-.7-2.338-1.931-4.16-1.931a1.937,1.937,0,0,0-2.182,2.215" transform="translate(-384.378 -716.548)" fill="none"/>
    </clipPath>
    <clipPath id="clip-path-46">
      <path id="Path_147173" data-name="Path 147173" d="M430.218,716.99c.134,4.118,3.012,29.091,3.012,29.091l2.66-.04s.191-7.459.37-14.862c.168-6.979.325-13.907.3-14.474-.031-.7-2.338-1.931-4.16-1.931a1.937,1.937,0,0,0-2.182,2.215" transform="translate(-430.216 -714.775)" fill="none"/>
    </clipPath>
    <clipPath id="clip-path-48">
      <path id="Path_147185" data-name="Path 147185" d="M383.52,589.239a14.621,14.621,0,0,0-2.28,5.093c-.208,1.619-.683,11.36-.664,12.438,0,0,4.816,1.2,7.166.492a8.188,8.188,0,0,1,5.319-.023s-.407-13.262-.951-15.108a5.89,5.89,0,0,0-3.5-3.283c-.285-.019-1.513-.178-2.7-.178-1.045,0-2.061.122-2.386.569" transform="translate(-380.575 -588.67)" fill="none"/>
    </clipPath>
    <clipPath id="clip-path-50">
      <rect id="Rectangle_20319" data-name="Rectangle 20319" width="4.354" height="15.337" fill="none"/>
    </clipPath>
    <clipPath id="clip-path-51">
      <path id="Path_147187" data-name="Path 147187" d="M504.325,464.043c-.025.39-.177,3.47-.323,4.674-.325,2.674-1.559,6.919-2.4,7.234-.392.147-.9-.652-1.3-1.575,1.629-1.971,3.674-8.6,3.758-10.406.032-.691.72-1.754.274-3.339.061.193.13.443.21.764a5.13,5.13,0,0,1-.215,2.648" transform="translate(-500.299 -460.631)" fill="none" clip-rule="evenodd"/>
    </clipPath>
    <linearGradient id="linear-gradient-6" x1="-12.39" y1="4.192" x2="-12.365" y2="4.192" xlink:href="#linear-gradient-5"/>
    <clipPath id="clip-path-52">
      <rect id="Rectangle_20321" data-name="Rectangle 20321" width="3.815" height="7.614" fill="none"/>
    </clipPath>
    <clipPath id="clip-path-53">
      <path id="Path_147189" data-name="Path 147189" d="M344.114,542.037c-.4.785-.876,1.4-1.246,1.27-.884-.315-2.185-4.56-2.529-7.234-.014-.107-.027-.228-.041-.362.485,1.935,2.446,4.619,3.815,6.326" transform="translate(-340.299 -535.711)" fill="none" clip-rule="evenodd"/>
    </clipPath>
    <linearGradient id="linear-gradient-7" x1="-10.113" y1="7.288" x2="-10.083" y2="7.288" xlink:href="#linear-gradient-5"/>
    <clipPath id="clip-path-54">
      <path id="Path_147194" data-name="Path 147194" d="M427,576.349a5.05,5.05,0,0,1-.533,1.8c-.206.144.385.833,1.025.887s1.566-.357,1.627-.968-.687-1.017-.726-1.552c-.023-.315-.462-.547-.842-.547a.5.5,0,0,0-.551.383" transform="translate(-426.425 -575.966)" fill="none"/>
    </clipPath>
    <clipPath id="clip-path-56">
      <rect id="Rectangle_20324" data-name="Rectangle 20324" width="5.295" height="1.511" fill="none"/>
    </clipPath>
    <clipPath id="clip-path-57">
      <path id="Path_147199" data-name="Path 147199" d="M521.366,505.766a14.274,14.274,0,0,1-1.373.579c-.912.342-1.3.5-2.061.748s-1.94-.286-1.856-.6a.644.644,0,0,1,.118-.219c-.279.581,1.21.828,2.217.463.984-.356,2.235-1.121,2.951-1.094,0,.075,0,.12,0,.12" transform="translate(-516.072 -505.645)" fill="none" clip-rule="evenodd"/>
    </clipPath>
    <linearGradient id="linear-gradient-8" x1="-10.705" y1="34.744" x2="-10.684" y2="34.744" xlink:href="#linear-gradient-5"/>
  </defs>
  <g id="Group_57737" data-name="Group 57737" transform="translate(-124 -1383.613)">
    <ellipse id="Ellipse_1579" data-name="Ellipse 1579" cx="32" cy="33" rx="32" ry="33" transform="translate(252 1434)" fill="#e1f1ff"/>
    <ellipse id="Ellipse_1580" data-name="Ellipse 1580" cx="89" cy="17.5" rx="89" ry="17.5" transform="translate(124 1467)" fill="#e1f1ff"/>
    <g id="Group_57737-2" data-name="Group 57737" transform="translate(140 1383.613)">
      <g id="Group_57857" data-name="Group 57857" clip-path="url(#clip-path)">
        <g id="Group_57738" data-name="Group 57738" transform="translate(0 0)">
          <g id="Group_57737-3" data-name="Group 57737" clip-path="url(#clip-path-2)">
            <path id="Path_147079" data-name="Path 147079" d="M139.679,102.426c-35.412,2.913-99.2-1.335-101.913-36.744a45.123,45.123,0,0,1,2.769-19.329C50.282,20.166,83.357.747,120.81.028c45.376-.872,74.5,19.314,79.283,44.1q.134.685.242,1.377c4.137,26.6-27.137,54.163-60.654,56.919" transform="translate(-33.367 -0.001)" fill="#e1f1ff" fill-rule="evenodd"/>
          </g>
        </g>
        <g id="Group_57740" data-name="Group 57740" transform="translate(4.267 22.975)">
          <g id="Group_57739" data-name="Group 57739" clip-path="url(#clip-path-3)">
            <rect id="Rectangle_20284" data-name="Rectangle 20284" width="179.184" height="121.804" transform="matrix(0.966, -0.258, 0.258, 0.966, -20.943, 5.498)" fill="url(#linear-gradient)"/>
          </g>
        </g>
        <g id="Group_57752" data-name="Group 57752" transform="translate(4.267 0)">
          <g id="Group_57751" data-name="Group 57751" clip-path="url(#clip-path-4)">
            <path id="Path_147081" data-name="Path 147081" d="M1185.017,470.315c-2.158-.86-3.494-4.949-6.617-8.472-5.338-6.025-13.211-5.7-14.841-4.7-1.758,1.078-2.026,3.586.1,7.394,2.452,4.394,12.934,9.853,16.011,8.547,1.428-.606,7.505-1.911,5.347-2.773" transform="translate(-1034.646 -404.809)" fill="#fdc9b5" fill-rule="evenodd"/>
            <path id="Path_147082" data-name="Path 147082" d="M1338.1,538.966l4.623,1.514-3.546,7.123-4.26-2.872Z" transform="translate(-1187.824 -477.854)" fill="#fff" fill-rule="evenodd"/>
            <path id="Path_147083" data-name="Path 147083" d="M693.992,422.606c-1.515-1.256-3.4-2.851-3.853-3.745s1.413-.44,3.067.083,7.6,3.041,8.574,4.055-.043,4.894-.915,4.5a71.248,71.248,0,0,1-6.872-4.895" transform="translate(-616.093 -370.917)" fill="#fdc9b5" fill-rule="evenodd"/>
            <rect id="Rectangle_20285" data-name="Rectangle 20285" width="2.947" height="2.739" transform="translate(82.082 36.792)" fill="#1f4c77"/>
            <rect id="Rectangle_20286" data-name="Rectangle 20286" width="26.86" height="19.56" transform="translate(103.515 39.147)" fill="#a9d3f9"/>
            <g id="Group_57745" data-name="Group 57745" transform="translate(104.708 39.147)" style="mix-blend-mode: overlay;isolation: isolate">
              <g id="Group_57744" data-name="Group 57744">
                <g id="Group_57743" data-name="Group 57743" clip-path="url(#clip-path-5)">
                  <g id="Group_57742" data-name="Group 57742">
                    <g id="Group_57741" data-name="Group 57741" clip-path="url(#clip-path-6)">
                      <rect id="Rectangle_20287" data-name="Rectangle 20287" width="25.747" height="3.501" transform="translate(-0.106 0.005) rotate(-2.614)" fill="url(#linear-gradient-2)"/>
                    </g>
                  </g>
                </g>
              </g>
            </g>
            <rect id="Rectangle_20289" data-name="Rectangle 20289" width="3.722" height="6.894" transform="translate(115.085 44.127)" fill="#286499"/>
            <rect id="Rectangle_20290" data-name="Rectangle 20290" width="2.712" height="1.129" transform="translate(115.565 44.772)" fill="#89bded"/>
            <rect id="Rectangle_20291" data-name="Rectangle 20291" width="2.712" height="4.161" transform="translate(115.565 46.361)" fill="#89bded"/>
            <path id="Path_147085" data-name="Path 147085" d="M798.306,230.829l-.6,20.995-19.061-.093-.272-20.178-.047-3.466,9.214-12.245,1.483,2.065Z" transform="translate(-694.344 -191.368)" fill="#c3def9" fill-rule="evenodd"/>
            <g id="Group_57750" data-name="Group 57750" transform="translate(83.985 24.474)" style="mix-blend-mode: overlay;isolation: isolate">
              <g id="Group_57749" data-name="Group 57749">
                <g id="Group_57748" data-name="Group 57748" clip-path="url(#clip-path-7)">
                  <g id="Group_57747" data-name="Group 57747">
                    <g id="Group_57746" data-name="Group 57746" clip-path="url(#clip-path-8)">
                      <rect id="Rectangle_20292" data-name="Rectangle 20292" width="16.751" height="18.877" transform="matrix(0.887, -0.463, 0.463, 0.887, -6.443, 3.362)" fill="url(#linear-gradient-3)"/>
                    </g>
                  </g>
                </g>
              </g>
            </g>
            <path id="Path_147087" data-name="Path 147087" d="M752.1,190.36l-11.074,14.718-2.672-.03,13.789-18.327,13.377,18.627h-2.655Z" transform="translate(-658.899 -165.549)" fill="#3579b6" fill-rule="evenodd"/>
            <path id="Path_147088" data-name="Path 147088" d="M873.339,205.331l27.556.039L883.956,186.7l-23.993,0s13.125,18.654,13.376,18.627" transform="translate(-766.721 -165.532)" fill="#316fa7" fill-rule="evenodd"/>
            <rect id="Rectangle_20294" data-name="Rectangle 20294" width="3.722" height="12.26" transform="translate(91.381 37.954)" fill="#286499"/>
            <rect id="Rectangle_20295" data-name="Rectangle 20295" width="2.712" height="1.129" transform="translate(91.861 38.598)" fill="#89bded"/>
            <rect id="Rectangle_20296" data-name="Rectangle 20296" width="2.712" height="9.527" transform="translate(91.861 40.187)" fill="#89bded"/>
            <path id="Path_147089" data-name="Path 147089" d="M738.851,475.735c1.656-.485,4.28-7.828,2.025-10.119l-.991-.2s2.838,2.6-1.035,10.32" transform="translate(-659.342 -412.643)" fill="#ff8409" fill-rule="evenodd"/>
          </g>
        </g>
        <g id="Group_57754" data-name="Group 57754" transform="translate(77.038 49.216)">
          <g id="Group_57753" data-name="Group 57753" clip-path="url(#clip-path-9)">
            <rect id="Rectangle_20297" data-name="Rectangle 20297" width="76.741" height="45.277" transform="translate(-5.875 0.915) rotate(-9.458)" fill="url(#linear-gradient-4)"/>
          </g>
        </g>
        <g id="Group_57756" data-name="Group 57756" transform="translate(4.267 0)">
          <g id="Group_57755" data-name="Group 57755" clip-path="url(#clip-path-4)">
            <path id="Path_147092" data-name="Path 147092" d="M876.309,491.746a30.652,30.652,0,0,1-5.787-5.753c-2.019-2.376-7.443-5.784-12.123-5.2s-6.073,1.338-8.773,2.034-6.231,1.689-8.472,1.156-6.88-.357-9.754,1.523-4.3,2.261-.938,2.465,9.927.175,13.313.708,10.088,1.5,13.217,3.55,15.9,9.909,15.9,9.909,5.567-8.892,3.411-10.386" transform="translate(-738.837 -426.215)" fill="#fdd3c3" fill-rule="evenodd"/>
            <path id="Path_147093" data-name="Path 147093" d="M1185.964,570.581l-5.277-3.361-9.124,16.2,5.194,3.55Z" transform="translate(-1042.989 -502.905)" fill="#fff" fill-rule="evenodd"/>
            <path id="Path_147094" data-name="Path 147094" d="M1367.357,550.375l3.939-8.133,8.227,4.114s-1.432,7.871-3.853,9.177-8.313-5.158-8.313-5.158" transform="translate(-1216.583 -480.759)" fill="#21527e" fill-rule="evenodd"/>
            <path id="Path_147095" data-name="Path 147095" d="M1192.5,591.136l13.267-20.91,17.284,8.439s-12.8,20.425-14.464,20.385-16.087-7.915-16.087-7.915" transform="translate(-1061.556 -505.57)" fill="#286499" fill-rule="evenodd"/>
          </g>
        </g>
        <g id="Group_57758" data-name="Group 57758" transform="translate(0 0)">
          <g id="Group_57757" data-name="Group 57757" clip-path="url(#clip-path-2)">
            <path id="Path_147097" data-name="Path 147097" d="M42.969,928.957c8.655,0,22.729,2.127,39.292,3.169,28.852,1.816,45.346.7,45.346,2.758,0,3.242-60.907,5.812-84.638,5.812S0,938.068,0,934.827s19.238-5.87,42.969-5.87" transform="translate(0 -823.625)" fill="#a9d3f9" fill-rule="evenodd"/>
            <path id="Path_147098" data-name="Path 147098" d="M177.271,316.032c-.308,3.494.065,8.5,2.023,10.617s6.764.681,6.5-.435-1.769-6.728-1.4-8.946a26.06,26.06,0,0,1,1.712-4.9c-2.22-1.042-4.6-1.718-6.863-2.691a27.852,27.852,0,0,0-1.979,6.354" transform="translate(-157.086 -274.564)" fill="#f97167" fill-rule="evenodd"/>
            <path id="Path_147099" data-name="Path 147099" d="M218.266,401.389c.751-.17,1.159-.3.652-1.6-.915-2.338-4.606-.714-4.22,1.435.113.627.812,2.374,1.95,1.9,1.049-.438.707-1.529,1.618-1.734" transform="translate(-190.33 -353.444)" fill="#286499" fill-rule="evenodd"/>
            <path id="Path_147100" data-name="Path 147100" d="M235.281,934.659a10.91,10.91,0,0,1-1.33,2.583c-.422.447,1.917.708,5.636.724,1.553.007.818-.331-.463-.682s-2.849-1.894-2.673-2.594-.841-.907-1.169-.032" transform="translate(-207.38 -828.168)" fill="#f97167" fill-rule="evenodd"/>
            <path id="Path_147101" data-name="Path 147101" d="M131.85,931.925a10.906,10.906,0,0,1-1.33,2.584c-.422.447,1.917.708,5.636.724,1.553.007.818-.331-.463-.682s-2.849-1.894-2.673-2.594-.841-.907-1.169-.032" transform="translate(-115.677 -825.744)" fill="#f97167" fill-rule="evenodd"/>
            <path id="Path_147102" data-name="Path 147102" d="M71.7,329.424c-.857-.629-4.144-2.827-5.2-6.141a64.821,64.821,0,0,1-1.812-9.555,12.819,12.819,0,0,0-.356-2.178c-.241-.721-1.207-1.846-1.076-3.128s.464.606,1.166,1.594c.493.694.35.314.335-.22-.017-.575.01-.716.212-.157a12.63,12.63,0,0,1,.523,2,31.9,31.9,0,0,0,3.389,7.444c1.5,2.412,3.4,4.282,3.979,4.257.833-.036-.3,6.708-1.157,6.079" transform="translate(-56.072 -273.068)" fill="#fdd2c2" fill-rule="evenodd"/>
          </g>
        </g>
        <g id="Group_57760" data-name="Group 57760" transform="translate(7.171 34.922)">
          <g id="Group_57759" data-name="Group 57759" clip-path="url(#clip-path-12)">
            <path id="Path_147103" data-name="Path 147103" d="M71.017,354.658c.63,1.911,1.752,8.632,3.663,10.156s5.137,1.922,5.4,3.517-3.235,5.544-4.657,4.188S70.276,359.4,70.383,358.1s0-5.356.633-3.445" transform="translate(-69.572 -348.921)" fill="#fdc4af" fill-rule="evenodd"/>
          </g>
        </g>
        <g id="Group_57762" data-name="Group 57762" transform="translate(0 0)">
          <g id="Group_57761" data-name="Group 57761" clip-path="url(#clip-path-2)">
            <path id="Path_147105" data-name="Path 147105" d="M217.883,629.883c-.118,4.154,1.349,32.324,1.718,33.809,0,0,2.911.853,4.046.316s1.946-32.738,1.8-33.636-7.451-4.644-7.568-.489" transform="translate(-193.172 -556.759)" fill="#286499" fill-rule="evenodd"/>
          </g>
        </g>
        <g id="Group_57764" data-name="Group 57764" transform="translate(24.704 71.203)">
          <g id="Group_57763" data-name="Group 57763" clip-path="url(#clip-path-14)">
            <path id="Path_147106" data-name="Path 147106" d="M205.723,635.972c.911,7.5,1.114,26.473,3.441,29.684s4.221,1.341,4.794-.337.3,8.852-2.818,9-6.7-8.49-6.939-11.293.611-34.552,1.522-27.056" transform="translate(-205.716 -634.051)" fill="#245a89" fill-rule="evenodd"/>
          </g>
        </g>
        <g id="Group_57766" data-name="Group 57766" transform="translate(0 0)">
          <g id="Group_57765" data-name="Group 57765" clip-path="url(#clip-path-2)">
            <path id="Path_147108" data-name="Path 147108" d="M141.072,622.6c-.348,1.55-7.38,32.8-8.013,34.273,0,0-3.319.624-4.155-.564s2.907-32.194,3.625-34.806,8.892-.451,8.544,1.1" transform="translate(-114.18 -549.95)" fill="#286499" fill-rule="evenodd"/>
          </g>
        </g>
        <g id="Group_57768" data-name="Group 57768" transform="translate(14.602 70.332)">
          <g id="Group_57767" data-name="Group 57767" clip-path="url(#clip-path-16)">
            <path id="Path_147109" data-name="Path 147109" d="M105.541,689.755c-.14,5.342-.757,20.475.539,23.821s3.173,2.4,3.569,1.857-.1,5.461-2.548,5.8-6.912-7.763-6.947-9.371,5.528-27.447,5.388-22.1" transform="translate(-103.399 -681.234)" fill="#245a89" fill-rule="evenodd"/>
          </g>
        </g>
        <g id="Group_57770" data-name="Group 57770" transform="translate(0 0)">
          <g id="Group_57769" data-name="Group 57769" clip-path="url(#clip-path-2)">
            <path id="Path_147111" data-name="Path 147111" d="M166.071,450.619c-1.222.3-4.3-.238-6.145-.66-2.053-.47-5.565-.348-6.713-.566-1.2-.227-3.881,8.363-3.456,10.44a16.272,16.272,0,0,1,.063,5.859c-.259,2.187-.725,4.332-1.231,4.879a16.218,16.218,0,0,0,7.689,3.056c4.09.278,7.608.206,8.678-.434s2.336-22.871,1.114-22.574" transform="translate(-131.742 -398.434)" fill="#fdc63c" fill-rule="evenodd"/>
          </g>
        </g>
        <g id="Group_57772" data-name="Group 57772" transform="translate(16.848 50.955)">
          <g id="Group_57771" data-name="Group 57771" clip-path="url(#clip-path-18)">
            <path id="Path_147112" data-name="Path 147112" d="M160.3,491.431c-.742,6.146-3.9,15.679-8.118,16.2s-7.165.626-7.02-2.234c-4.945,3.717,4.568,10.183,8.454,9.262s8.643-5.645,8.649-6.665,1.629-15.889-1.965-16.564" transform="translate(-144.32 -486.664)" fill="#fdb80a" fill-rule="evenodd"/>
          </g>
        </g>
        <g id="Group_57774" data-name="Group 57774" transform="translate(0 0)">
          <g id="Group_57773" data-name="Group 57773" clip-path="url(#clip-path-2)">
            <path id="Path_147114" data-name="Path 147114" d="M127.808,454.526a17.928,17.928,0,0,0-3.865-4.44c-.755-.382,2.636-6.683,2.636-6.683s6.868,1.071,8.008,1.031-6.248,11.2-6.779,10.092" transform="translate(-109.792 -393.126)" fill="#fdc63c" fill-rule="evenodd"/>
            <path id="Path_147115" data-name="Path 147115" d="M220.654,435c.164.761.145,1.412.568,1.852s-1.337,1.2-1.962,1.074a4.493,4.493,0,0,1-2.02-1.406s1.371-1.421,1.257-1.947,1.993-.332,2.157.427" transform="translate(-192.608 -385.035)" fill="#fdd2c2" fill-rule="evenodd"/>
          </g>
        </g>
        <g id="Group_57776" data-name="Group 57776" transform="translate(24.632 49.241)">
          <g id="Group_57775" data-name="Group 57775" clip-path="url(#clip-path-20)">
            <path id="Path_147116" data-name="Path 147116" d="M227.855,425.564c.535.775,1.821,3.251,2.725,2.279a2.38,2.38,0,0,0,.035-3.081c-.6-.708-3.3.029-2.76.8" transform="translate(-226.589 -425.586)" fill="#fdc4af" fill-rule="evenodd"/>
          </g>
        </g>
        <g id="Group_57778" data-name="Group 57778" transform="translate(0 0)">
          <g id="Group_57777" data-name="Group 57777" clip-path="url(#clip-path-2)">
            <path id="Path_147118" data-name="Path 147118" d="M229.806,414.065c-.218.409-.722.809-1.112.638s-1.133-.442-1.293.2a2.472,2.472,0,0,0,1.414,2.611,1.217,1.217,0,0,0,1.648-1.331c-.035-.782-.439-2.531-.658-2.122" transform="translate(-201.588 -367.061)" fill="#fdd2c2" fill-rule="evenodd"/>
            <path id="Path_147119" data-name="Path 147119" d="M221.621,427.773c-.274-.323-1.774-.864-1.437-.144s1.517,1.253,1.611.939a.68.68,0,0,0-.174-.8" transform="translate(-195.175 -378.826)" fill="#fdd2c2" fill-rule="evenodd"/>
            <path id="Path_147120" data-name="Path 147120" d="M358.25,106.908a1.474,1.474,0,0,0,.1,1.693c.488.8,1.848,1.538,2.46,1.305a5.189,5.189,0,0,0,1.764-1.68,3.568,3.568,0,0,0,.415-.905,2.352,2.352,0,0,0-2.031-2.311c-1.708-.137-2.16,1.065-2.066,1.345,0,0-.273.038-.637.553" transform="translate(-317.435 -93.093)" fill="#286499" fill-rule="evenodd"/>
            <path id="Path_147121" data-name="Path 147121" d="M415.177,955.03a14.223,14.223,0,0,1-1.063,3.234c-.4.477,4.03.1,4.03.1s-.807-1.581-1.09-2.4-1.658-1.731-1.877-.942" transform="translate(-367.136 -846.475)" fill="#1b4c77" fill-rule="evenodd"/>
            <path id="Path_147122" data-name="Path 147122" d="M412.365,178.707a61.475,61.475,0,0,1,6.107,2.755c1.319.786,4.167,1.792,4.726,2.681s-3.267,7.458-3.665,7.633-2.527.453-5.871-3.067-2.178-10.321-1.3-10" transform="translate(-364.778 -158.434)" fill="#f86156" fill-rule="evenodd"/>
          </g>
        </g>
        <g id="Group_57780" data-name="Group 57780" transform="translate(46.651 20.262)">
          <g id="Group_57779" data-name="Group 57779" clip-path="url(#clip-path-22)">
            <path id="Path_147123" data-name="Path 147123" d="M439.108,235.873c1.156,2.1,2.7,6.157,4.966,6.6s-3.276,3.508-4.4,1.974.325-6.939.065-7.347Z" transform="translate(-435.97 -229.39)" fill="#f85a4f" fill-rule="evenodd"/>
          </g>
        </g>
        <g id="Group_57787" data-name="Group 57787" transform="translate(0 0)">
          <g id="Group_57786" data-name="Group 57786" clip-path="url(#clip-path-2)">
            <path id="Path_147125" data-name="Path 147125" d="M432.458,226.209c-.819.535-2.112,1.657-3.333,6.076s-2.864,7.383-4.387,7.763-2.585,2.957-2.146,3.82,2.516,1.008,3.871.763,6.3-4.159,6.989-8.171-.175-10.788-.994-10.251" transform="translate(-374.587 -200.533)" fill="#f2d381" fill-rule="evenodd"/>
            <path id="Path_147126" data-name="Path 147126" d="M376.186,346.346c.818,2.787,3.864,21.84,4.048,36.433s-.879,31.472-1.353,32.323c-.741,1.33-5.965,1.282-6.846.3-.486-.545-3.963-65.039-3.134-67.163.467-1.2,6.467-4.677,7.285-1.89" transform="translate(-326.96 -306.139)" fill="#7fa465" fill-rule="evenodd"/>
            <path id="Path_147127" data-name="Path 147127" d="M331.861,957.208a14.223,14.223,0,0,1-1.063,3.234c-.4.477,4.03.1,4.03.1s-.807-1.581-1.09-2.4-1.658-1.731-1.877-.942" transform="translate(-293.267 -848.406)" fill="#1b4c77" fill-rule="evenodd"/>
            <path id="Path_147128" data-name="Path 147128" d="M294.433,377.611c-.026,3.933-.266,39.369-.646,39.959-1.408,2.187-6.516,1.993-7.269.345a9.957,9.957,0,0,1-.4-1.722,295.959,295.959,0,0,1-3.092-33.042c-.11-7.151,1.506-31.194,1.82-33.463s8.842-.409,9.2,1.285c.147.689.242,4.574.3,9.2v.006c.086,6.754.1,15.1.082,17.429" transform="translate(-250.931 -309.104)" fill="#80a863" fill-rule="evenodd"/>
            <g id="Group_57785" data-name="Group 57785" transform="translate(35.188 51.078)" style="mix-blend-mode: overlay;isolation: isolate">
              <g id="Group_57784" data-name="Group 57784">
                <g id="Group_57783" data-name="Group 57783" clip-path="url(#clip-path-24)">
                  <g id="Group_57782" data-name="Group 57782">
                    <g id="Group_57781" data-name="Group 57781" clip-path="url(#clip-path-25)">
                      <rect id="Rectangle_20304" data-name="Rectangle 20304" width="8.329" height="62.564" transform="translate(0)" fill="url(#linear-gradient-5)"/>
                    </g>
                  </g>
                </g>
              </g>
            </g>
            <path id="Path_147130" data-name="Path 147130" d="M330.36,977.428c-.024-.413.431-1.177,1.669-1.43a2.555,2.555,0,0,1,2.506,1.469c-.049.336-4.151.375-4.175-.039" transform="translate(-292.901 -865.304)" fill="#276398" fill-rule="evenodd"/>
            <path id="Path_147131" data-name="Path 147131" d="M413.676,975.415c-.024-.413.431-1.177,1.669-1.43a2.556,2.556,0,0,1,2.506,1.469c-.049.336-4.151.375-4.175-.039" transform="translate(-366.77 -863.519)" fill="#276398" fill-rule="evenodd"/>
            <path id="Path_147132" data-name="Path 147132" d="M293.319,170.865c.916,1.02,2.834,9.885,2.754,11.933s.43,10.1-3.518,10.806-13.761.777-14.609-1.879-2.605-19.933-1.041-20.9,7.04-1.32,8.219-1.462,7.279.481,8.2,1.5" transform="translate(-244.953 -150.139)" fill="#f97167" fill-rule="evenodd"/>
          </g>
        </g>
        <g id="Group_57789" data-name="Group 57789" transform="translate(31.327 19.201)">
          <g id="Group_57788" data-name="Group 57788" clip-path="url(#clip-path-26)">
            <path id="Path_147133" data-name="Path 147133" d="M268.922,238.846c.524-1.141,1.32-2.077,4.06-2.077-.653,5.484-.774,13.09,3.11,14.664,5.178,2.1,11.613.1,12.817-2.622.819,8.419-17.44,7.953-18.111,7.248s-3.031-14.7-1.875-17.213" transform="translate(-269.478 -229.124)" fill="#f85a4f" fill-rule="evenodd"/>
            <path id="Path_147134" data-name="Path 147134" d="M336.524,142.992c2.355,3.784,4.276,13.894,5.025,16.955s1.8-12.965,3.1-15.711-9.427-5-8.12-1.244" transform="translate(-329.595 -144.223)" fill="#fff" fill-rule="evenodd"/>
          </g>
        </g>
        <g id="Group_57791" data-name="Group 57791" transform="translate(0 0)">
          <g id="Group_57790" data-name="Group 57790" clip-path="url(#clip-path-2)">
            <path id="Path_147136" data-name="Path 147136" d="M362.426,141.051c0,.714-.207,1.729.787,2.113,0,0-.2,1.578-1.584,1.745s-2.237-1.888-2.436-2.138c0,0,1.389-2.273,1.152-3.144s2.082.709,2.08,1.424" transform="translate(-318.466 -123.569)" fill="#fdd3c3" fill-rule="evenodd"/>
          </g>
        </g>
        <g id="Group_57793" data-name="Group 57793" transform="translate(40.728 15.803)">
          <g id="Group_57792" data-name="Group 57792" clip-path="url(#clip-path-28)">
            <path id="Path_147137" data-name="Path 147137" d="M370.841,141.359c.284.9.788,3.642,1.937,2.978a2.38,2.38,0,0,0,.937-2.935c-.368-.854-3.159-.939-2.874-.042" transform="translate(-369.502 -140.57)" fill="#fdc4af" fill-rule="evenodd"/>
          </g>
        </g>
        <g id="Group_57795" data-name="Group 57795" transform="translate(0 0)">
          <g id="Group_57794" data-name="Group 57794" clip-path="url(#clip-path-2)">
            <path id="Path_147139" data-name="Path 147139" d="M364.024,129.468c-.167-.3-1.383-1.671-1.48-.835a1.714,1.714,0,0,0,1.215,1.671c.432.016.432-.539.265-.837" transform="translate(-321.43 -113.812)" fill="#fdd3c3" fill-rule="evenodd"/>
            <path id="Path_147140" data-name="Path 147140" d="M370.031,122.478c-.329.537-.653,2.825.765,3.833s1.93-.173,2.117-.874a8.742,8.742,0,0,0,.125-2.344c-.048-.115-.491.526-1.117.013-.333-.272-1.56-1.163-1.89-.627" transform="translate(-327.823 -108.442)" fill="#fdd3c3" fill-rule="evenodd"/>
            <path id="Path_147141" data-name="Path 147141" d="M208.367,183c-.149-2.246-.328-6.254-1.414-5.975-1.97.5-2.613.126-5.291,3.26-1.685,1.97-4.362,7.252-6.193,11.769,2.263.974,4.643,1.649,6.863,2.691a18.249,18.249,0,0,1,2.723-4.806c1.3-1.141,3.46-4.693,3.311-6.939" transform="translate(-173.306 -156.944)" fill="#f97167" fill-rule="evenodd"/>
            <path id="Path_147142" data-name="Path 147142" d="M524.245,167.637l-1.005,0a1.2,1.2,0,0,0,.331-.53,16.068,16.068,0,0,0,.309-1.808,4.046,4.046,0,0,1,1.8-2.587,1.667,1.667,0,0,1,1.8.133,6.731,6.731,0,0,1,1.714,2.275,6.962,6.962,0,0,1,.365,1.85,1.008,1.008,0,0,0,.337.571l-.953-.014a.887.887,0,0,1-.25-.618.964.964,0,0,0,.109.613l-4.455.112c.067-.31.106-.55.106-.55s-.068.251-.088.306a.664.664,0,0,1-.12.245" transform="translate(-463.911 -144.083)" fill="#286398" fill-rule="evenodd"/>
            <path id="Path_147143" data-name="Path 147143" d="M589.72,929.532a11.483,11.483,0,0,0,.31,3.474c.308,1.183-1.672.959-3.114,1.145a14.8,14.8,0,0,1-3.162.146c-.41-.036-.865-.316.718-1,1.5-.647,3.325-1.4,3.383-2.558.078-1.581,1.9-2.522,1.865-1.208" transform="translate(-517.217 -823.583)" fill="#fdd2c2" fill-rule="evenodd"/>
          </g>
        </g>
        <g id="Group_57797" data-name="Group 57797" transform="translate(66.146 105.326)">
          <g id="Group_57796" data-name="Group 57796" clip-path="url(#clip-path-30)">
            <path id="Path_147144" data-name="Path 147144" d="M588.13,951.276a7.207,7.207,0,0,1-2.831,1.6c-.509.157-3.708.6-3.106,0s-1.469.644-1.416,1.06,3.574.238,3.977.224,3.329-.238,3.484-.606.26-2.874-.109-2.273" transform="translate(-581.069 -948.658)" fill="#1a4164" fill-rule="evenodd"/>
          </g>
        </g>
        <g id="Group_57799" data-name="Group 57799" transform="translate(0 0)">
          <g id="Group_57798" data-name="Group 57798" clip-path="url(#clip-path-2)">
            <path id="Path_147146" data-name="Path 147146" d="M464.492,931.024a10.951,10.951,0,0,0,.326,3.474c.323,1.183-1.756.959-3.27,1.145-1.217.15-2.953,0-3.381.06s-.849-.229.813-.912c1.578-.647,3.492-1.4,3.553-2.558.082-1.581,2-2.522,1.959-1.208" transform="translate(-405.876 -824.906)" fill="#fdd2c2" fill-rule="evenodd"/>
          </g>
        </g>
        <g id="Group_57801" data-name="Group 57801" transform="translate(51.907 105.495)">
          <g id="Group_57800" data-name="Group 57800" clip-path="url(#clip-path-32)">
            <path id="Path_147147" data-name="Path 147147" d="M463.074,952.768a7.674,7.674,0,0,1-2.974,1.6c-.534.157-3.895.6-3.262,0s-1.543.644-1.487,1.06,3.754.238,4.177.224,3.5-.238,3.66-.606.273-2.874-.114-2.273" transform="translate(-455.626 -950.15)" fill="#1a4164" fill-rule="evenodd"/>
          </g>
        </g>
        <g id="Group_57803" data-name="Group 57803" transform="translate(0 0)">
          <g id="Group_57802" data-name="Group 57802" clip-path="url(#clip-path-2)">
            <path id="Path_147149" data-name="Path 147149" d="M471.034,344.9c-.724,2.309-4.686,19.907-4.866,23.032s1.027,41.962,1.638,43.283,3.521.779,4.454-.153,3.289-39.613,3.074-43.912.944-22.869-.194-23.663a2.609,2.609,0,0,0-4.106,1.413" transform="translate(-413.294 -304.086)" fill="#286499" fill-rule="evenodd"/>
          </g>
        </g>
        <g id="Group_57808" data-name="Group 57808" transform="translate(52.855 38.889)">
          <g id="Group_57807" data-name="Group 57807" clip-path="url(#clip-path-34)">
            <g id="Group_57806" data-name="Group 57806" transform="translate(5.915 8.597)" style="mix-blend-mode: overlay;isolation: isolate">
              <g id="Group_57805" data-name="Group 57805">
                <g id="Group_57804" data-name="Group 57804" clip-path="url(#clip-path-35)">
                  <path id="Path_147150" data-name="Path 147150" d="M519.948,419.079c-1.043,4.12-1.586,31.534-1.092,36.934s.04,19.292-.5,21.665,4.011-10.747,5.065-16.069-2.432-46.649-3.475-42.53" transform="translate(-518.314 -418.791)" fill="#6b6b6b" fill-rule="evenodd"/>
                </g>
              </g>
            </g>
          </g>
        </g>
        <g id="Group_57810" data-name="Group 57810" transform="translate(59.702 38.892)">
          <g id="Group_57809" data-name="Group 57809" clip-path="url(#clip-path-36)">
            <path id="Path_147152" data-name="Path 147152" d="M534.57,344.025c.515,1.906,2.648,22.617,2.366,26.385s1.7,16.316,2.082,20.381,1.166,19.417.074,20.12-3.173,1.179-3.562.045-7.762-35.062-8.419-39.62-.748-26.392-.282-27.216,7.226-2,7.741-.1" transform="translate(-526.537 -342.998)" fill="#286499" fill-rule="evenodd"/>
            <path id="Path_147153" data-name="Path 147153" d="M573.54,321.655c-.109,4.795.137,9.611.446,14.395.3,4.709.729,9.41,1.237,14.1,1.03,9.512,2.4,18.984,3.88,28.434.832,5.293,1.623,10.6,2.623,15.868,0,.006.238-.062.231-.108-.665-4.761-1.51-9.5-2.263-14.245q-1.111-7-2.117-14.024c-1.339-9.463-2.477-18.963-3.15-28.5-.377-5.338-.514-10.675-.675-16.022,0,.006-.211.048-.212.1" transform="translate(-568.187 -323.987)" fill="#f4db99"/>
            <path id="Path_147154" data-name="Path 147154" d="M583.933,313.41c.412,9.607,1.27,19.205,2.211,28.773.936,9.523,2.019,19.038,3.366,28.512q.568,3.993,1.169,7.981c.4,2.682.708,5.418,1.3,8.064,0,0,.128-.035.125-.059-.23-2.381-.688-4.753-1.036-7.12s-.685-4.74-1.005-7.114q-.968-7.171-1.851-14.353-1.727-14.246-2.929-28.549c-.454-5.391-.82-10.788-1.254-16.18,0,0-.1.023-.1.045" transform="translate(-577.425 -316.725)" fill="#f4db99"/>
          </g>
        </g>
        <g id="Group_57815" data-name="Group 57815" transform="translate(60.307 38.892)">
          <g id="Group_57814" data-name="Group 57814" clip-path="url(#clip-path-37)">
            <g id="Group_57813" data-name="Group 57813" transform="translate(7.926 10.619)" style="mix-blend-mode: overlay;isolation: isolate">
              <g id="Group_57812" data-name="Group 57812">
                <g id="Group_57811" data-name="Group 57811" clip-path="url(#clip-path-38)">
                  <path id="Path_147156" data-name="Path 147156" d="M601.88,436.961c-.5,4.22.807,31.192,1.994,36.482s1.656,19.429,1.43,21.853,5.161-11.2,5.519-16.612-8.441-45.944-8.943-41.724" transform="translate(-601.77 -436.654)" fill="#6b6b6b" fill-rule="evenodd"/>
                </g>
              </g>
            </g>
          </g>
        </g>
        <g id="Group_57817" data-name="Group 57817" transform="translate(0 0)">
          <g id="Group_57816" data-name="Group 57816" clip-path="url(#clip-path-2)">
            <path id="Path_147158" data-name="Path 147158" d="M499.126,211.585a7.358,7.358,0,0,0-4.643,2.185c-1.249,1.446-1.661,6.288-1.234,7.392A15.414,15.414,0,0,1,494.6,225.2c.054,1.23-1.069,3.959-.148,4.594s11.177.359,11.177.359,2.168-13.752.958-15.667a4.142,4.142,0,0,0-2.664-2.284,13.723,13.723,0,0,0-4.8-.613" transform="translate(-437.177 -187.563)" fill="#f4db99" fill-rule="evenodd"/>
          </g>
        </g>
        <g id="Group_57819" data-name="Group 57819" transform="translate(55.91 23.987)">
          <g id="Group_57818" data-name="Group 57818" clip-path="url(#clip-path-40)">
            <path id="Path_147159" data-name="Path 147159" d="M533.861,209.415a5.165,5.165,0,0,0,.958,1.83,1.8,1.8,0,0,0,2.208-.072,2.585,2.585,0,0,0,.849-1.838c-.008-.711-4.109-.3-4.015.079" transform="translate(-529.236 -209.243)" fill="#7fa465" fill-rule="evenodd"/>
            <path id="Path_147160" data-name="Path 147160" d="M503.313,266.2c1.883-.182,9.4-3.69,9.674-7.788.341-5.108,2.518-7.53,2.888-4.4s1.067,13.111-1.71,14.544-12.735-2.174-10.852-2.356" transform="translate(-501.945 -247.963)" fill="#f2d381" fill-rule="evenodd"/>
          </g>
        </g>
        <g id="Group_57821" data-name="Group 57821" transform="translate(0 0)">
          <g id="Group_57820" data-name="Group 57820" clip-path="url(#clip-path-2)">
            <path id="Path_147162" data-name="Path 147162" d="M544.677,192.021c0,.463-.311,1.8.2,2.131,0,0-.143,1.276-1.3,1.193-.682-.05-.849-.741-.983-1.162a5.17,5.17,0,0,0,.218-1.521c-.047-.646,1.863-1.045,1.864-.641" transform="translate(-481.072 -170.104)" fill="#fdd2c2" fill-rule="evenodd"/>
          </g>
        </g>
        <g id="Group_57823" data-name="Group 57823" transform="translate(61.523 21.754)">
          <g id="Group_57822" data-name="Group 57822" clip-path="url(#clip-path-42)">
            <path id="Path_147163" data-name="Path 147163" d="M539.768,183.624c.473.815,1.56,3.383,2.538,2.486a2.38,2.38,0,0,0,.276-3.069c-.545-.754-3.287-.23-2.814.583" transform="translate(-540.041 -183.717)" fill="#fdc4af" fill-rule="evenodd"/>
          </g>
        </g>
        <g id="Group_57825" data-name="Group 57825" transform="translate(0 0)">
          <g id="Group_57824" data-name="Group 57824" clip-path="url(#clip-path-2)">
            <path id="Path_147165" data-name="Path 147165" d="M535.785,172.759a1.115,1.115,0,0,1,1.051-1.206c.94-.025,1.179.975,1.176,1.311.3-.254.838-.469.745.1-.112.678-.578,1.15-.794,1.056a2.67,2.67,0,0,1-.116.7.833.833,0,0,1-1.321.445,1.634,1.634,0,0,1-.625-1.163c-.273,0-.745-.447-.865-1.067-.1-.5.389-.389.75-.178" transform="translate(-474.358 -152.101)" fill="#fdd2c2" fill-rule="evenodd"/>
            <path id="Path_147166" data-name="Path 147166" d="M456.813,981.4a6.4,6.4,0,0,1-.806,1.767c-.3.261,3.078.165,3.078.165s-.636-.973-.85-1.418-1.256-.946-1.422-.515" transform="translate(-404.284 -869.973)" fill="#ffb809" fill-rule="evenodd"/>
            <path id="Path_147167" data-name="Path 147167" d="M410.869,982.66a6.4,6.4,0,0,1-.806,1.767c-.3.261,3.062.159,3.062.159s-.62-.966-.834-1.411-1.256-.946-1.422-.515" transform="translate(-363.55 -871.093)" fill="#ffb809" fill-rule="evenodd"/>
            <path id="Path_147168" data-name="Path 147168" d="M384.381,718.763c.134,4.118,3.012,29.091,3.012,29.091l2.66-.04s.722-28.166.67-29.336-6.476-3.832-6.342.284" transform="translate(-340.795 -635.301)" fill="#f97167" fill-rule="evenodd"/>
          </g>
        </g>
        <g id="Group_57827" data-name="Group 57827" transform="translate(43.583 81.247)">
          <g id="Group_57826" data-name="Group 57826" clip-path="url(#clip-path-44)">
            <path id="Path_147169" data-name="Path 147169" d="M392.878,805.875c.363,2.524,2.337,17,3.35,18.195s2.1,2.637,3.016-.166.691,4.842-.7,5.549S394,827.627,394,827.627s-1.484-24.276-1.121-21.752" transform="translate(-391.864 -795.583)" fill="#f85a4f" fill-rule="evenodd"/>
          </g>
        </g>
        <g id="Group_57829" data-name="Group 57829" transform="translate(0 0)">
          <g id="Group_57828" data-name="Group 57828" clip-path="url(#clip-path-2)">
            <path id="Path_147171" data-name="Path 147171" d="M430.218,716.99c.134,4.118,3.012,29.091,3.012,29.091l2.66-.04s.191-7.459.37-14.862c.168-6.979.325-13.907.3-14.474-.052-1.17-6.476-3.832-6.342.284" transform="translate(-381.435 -633.729)" fill="#f97167" fill-rule="evenodd"/>
          </g>
        </g>
        <g id="Group_57831" data-name="Group 57831" transform="translate(48.781 81.046)">
          <g id="Group_57830" data-name="Group 57830" clip-path="url(#clip-path-46)">
            <path id="Path_147172" data-name="Path 147172" d="M434.961,793.566c.363,2.524,2.337,17,3.35,18.194s2.1,2.638,3.016-.166.691,4.842-.7,5.549-4.541-1.826-4.541-1.826-1.484-24.275-1.121-21.752" transform="translate(-434.372 -784.469)" fill="#f85a4f" fill-rule="evenodd"/>
          </g>
        </g>
        <g id="Group_57833" data-name="Group 57833" transform="translate(0 0)">
          <g id="Group_57832" data-name="Group 57832" clip-path="url(#clip-path-2)">
            <path id="Path_147174" data-name="Path 147174" d="M409.737,994.188c-.018-.281.327-.8,1.265-.971a1.961,1.961,0,0,1,1.9,1c-.037.228-3.145.254-3.164-.026" transform="translate(-363.277 -880.58)" fill="#fdc63c" fill-rule="evenodd"/>
            <path id="Path_147175" data-name="Path 147175" d="M455.677,992.73c-.018-.281.327-.8,1.264-.971a1.961,1.961,0,0,1,1.9,1c-.037.228-3.145.254-3.164-.026" transform="translate(-404.008 -879.288)" fill="#fdc63c" fill-rule="evenodd"/>
            <path id="Path_147176" data-name="Path 147176" d="M383.521,589.24a14.623,14.623,0,0,0-2.28,5.093c-.208,1.619-.683,11.36-.664,12.438,0,0,4.816,1.2,7.165.492a8.186,8.186,0,0,1,5.319-.023s-.407-13.262-.951-15.108a5.89,5.89,0,0,0-3.5-3.283c-.536-.036-4.4-.564-5.089.391" transform="translate(-337.424 -521.923)" fill="#fff" fill-rule="evenodd"/>
            <path id="Path_147177" data-name="Path 147177" d="M419.528,631.108q-.126-.052-.247-.115a1.778,1.778,0,0,1-.3-.156,1.012,1.012,0,0,1-.378-.739,1.16,1.16,0,0,0-.078.351,4.919,4.919,0,0,1-.326-.645,2.168,2.168,0,0,1-.084-.724,1.478,1.478,0,0,0-.109.4,3.245,3.245,0,0,0-.092-.392,2.871,2.871,0,0,1-.038-.466,4.4,4.4,0,0,1,.033-.5,1.429,1.429,0,0,1,.32-.888,2.858,2.858,0,0,1,1.045-.719c.147-.06.3-.1.45-.166.26-.112.465-.3.708-.436a1.171,1.171,0,0,1-.224.409c.148-.038.308-.066.458-.106a1.623,1.623,0,0,0,.43-.223.777.777,0,0,1-.162.3,1.878,1.878,0,0,1,.529.043,1.377,1.377,0,0,1,.387.123,1.817,1.817,0,0,1,.631.506,3.022,3.022,0,0,1,.542,1.971,1.787,1.787,0,0,1-.1.463,3.128,3.128,0,0,1-.174.5c0-.135.041-.44-.052-.531a2.065,2.065,0,0,1-.328,1.079c0-.108.036-.309-.019-.4a1.513,1.513,0,0,1-.672,1.006c0-.082.066-.168.072-.256a.563.563,0,0,1-.356.336,2.84,2.84,0,0,1-1.064.163,2.537,2.537,0,0,1-.809-.192" transform="translate(-370.497 -554.942)" fill="#ffe39c" fill-rule="evenodd"/>
            <path id="Path_147178" data-name="Path 147178" d="M411.737,624.778c-.69-.1-1.161.2-1.29-.781-.077-.582.319-1.462,1.03-1.387.468.05.822.875.823,1.3,0,.481-.293.561-.563.867" transform="translate(-363.899 -552.01)" fill="#ffe39c" fill-rule="evenodd"/>
            <path id="Path_147179" data-name="Path 147179" d="M454.164,625.589c-.2-.376.42-.931.75-1.037a.764.764,0,0,1,.581.009c.114.059.167.161.264.234a.418.418,0,0,0,.195.055c-.044.068-.145.034-.205.018,0,.047.049.083.084.112s.076.036.09.064a.442.442,0,0,0-.062.1.333.333,0,0,0,0,.127.556.556,0,0,1-.01.25.752.752,0,0,1-.258.386,1.209,1.209,0,0,1-.989.2l-.032-.007c-.282-.068-.343-.174-.406-.5" transform="translate(-402.632 -553.688)" fill="#ffe39c" fill-rule="evenodd"/>
            <path id="Path_147180" data-name="Path 147180" d="M435.7,654.026a1.094,1.094,0,0,0-1.037-.475.771.771,0,0,0-.74.654c-.131.885,1.093,1.156,1.611.6a.726.726,0,0,0,.166-.783" transform="translate(-384.718 -579.446)" fill="#ffd25e" fill-rule="evenodd"/>
            <path id="Path_147181" data-name="Path 147181" d="M415.69,630.066c-.324,0-.757,0-.941-.32a.464.464,0,0,1,.381-.748c.547.009.449.74.56,1.068" transform="translate(-367.648 -557.677)" fill="#ffd25e" fill-rule="evenodd"/>
            <path id="Path_147182" data-name="Path 147182" d="M455.18,629.632c.061-.395,1.214-1.523,1.154-.6-.035.534-.7.65-1.126.62.019-.013.038-.025-.028-.017" transform="translate(-403.568 -557.393)" fill="#ffd25e" fill-rule="evenodd"/>
            <path id="Path_147183" data-name="Path 147183" d="M440.476,653.039c-.051.01-.2.021-.189.106.01.055.129.117.175.134a.411.411,0,0,0,.318,0c.114-.067.007-.143-.071-.177a.557.557,0,0,0-.228-.048c-.007,0,0,0,0-.011" transform="translate(-390.363 -578.993)" fill="#8c7d56" fill-rule="evenodd"/>
          </g>
        </g>
        <g id="Group_57835" data-name="Group 57835" transform="translate(43.152 66.748)">
          <g id="Group_57834" data-name="Group 57834" clip-path="url(#clip-path-48)">
            <path id="Path_147184" data-name="Path 147184" d="M361.4,656.773c1.7,5.591,2.656,6.708,4.687,8.423s7.565,2.057,8.486.7.486,8.258-2.92,7.855-12.669,2.311-13.5-2.391,1.552-20.174,3.252-14.585" transform="translate(-360.534 -647.986)" fill="#f4f2ee" fill-rule="evenodd"/>
          </g>
        </g>
        <g id="Group_57847" data-name="Group 57847" transform="translate(0 0)">
          <g id="Group_57846" data-name="Group 57846" clip-path="url(#clip-path-2)">
            <path id="Path_147186" data-name="Path 147186" d="M498.939,459.832c-.025.39-.177,3.47-.323,4.674-.325,2.674-1.559,6.919-2.4,7.234-.392.147-.9-.652-1.3-1.575a5.912,5.912,0,0,1-.662-2.423,15.1,15.1,0,0,0,3.145-5.652,17.593,17.593,0,0,0,.68-2.438,3.022,3.022,0,0,0-.209-1.177c-.093-1.455-.18-1.9.17-.661s.313.422.4-.418c.076-.736.076-2.348.508-.982a.014.014,0,0,1,0,.007c.061.193.13.443.21.764a5.13,5.13,0,0,1-.215,2.648" transform="translate(-438.185 -404.19)" fill="#fdd2c2" fill-rule="evenodd"/>
            <g id="Group_57840" data-name="Group 57840" transform="translate(56.727 52.23)" style="mix-blend-mode: overlay;isolation: isolate">
              <g id="Group_57839" data-name="Group 57839">
                <g id="Group_57838" data-name="Group 57838" clip-path="url(#clip-path-50)">
                  <g id="Group_57837" data-name="Group 57837" transform="translate(0 0)">
                    <g id="Group_57836" data-name="Group 57836" clip-path="url(#clip-path-51)">
                      <rect id="Rectangle_20318" data-name="Rectangle 20318" width="4.579" height="15.467" transform="translate(0 0)" fill="url(#linear-gradient-6)"/>
                    </g>
                  </g>
                </g>
              </g>
            </g>
            <path id="Path_147188" data-name="Path 147188" d="M339.074,477.427c-.4.785-.876,1.4-1.246,1.27-.884-.315-2.185-4.56-2.529-7.234-.014-.107-.027-.228-.041-.362-.141-1.367-.276-3.957-.3-4.312a4.878,4.878,0,0,1-.227-2.648c.678-2.612.667-.629.756.211s.05,1.654.42.418.278-.794.18.661a5.372,5.372,0,0,0-.176,1.267,19.218,19.218,0,0,0,.6,2.651,16.562,16.562,0,0,0,3.417,5.4,6.182,6.182,0,0,1-.852,2.674" transform="translate(-296.673 -410.359)" fill="#fdd2c2" fill-rule="evenodd"/>
            <g id="Group_57845" data-name="Group 57845" transform="translate(38.586 60.743)" style="mix-blend-mode: overlay;isolation: isolate">
              <g id="Group_57844" data-name="Group 57844">
                <g id="Group_57843" data-name="Group 57843" clip-path="url(#clip-path-52)">
                  <g id="Group_57842" data-name="Group 57842">
                    <g id="Group_57841" data-name="Group 57841" clip-path="url(#clip-path-53)">
                      <rect id="Rectangle_20320" data-name="Rectangle 20320" width="3.815" height="7.728" fill="url(#linear-gradient-7)"/>
                    </g>
                  </g>
                </g>
              </g>
            </g>
            <path id="Path_147190" data-name="Path 147190" d="M355.613,567.916s2.157,2.659,2.844,2.922-2.086,7.323-2.37,6.46-2.764-5.354-3.78-5.3a13.2,13.2,0,0,1,1.282-2.18,11.33,11.33,0,0,1,2.024-1.906" transform="translate(-312.36 -503.522)" fill="#fff" fill-rule="evenodd"/>
            <path id="Path_147191" data-name="Path 147191" d="M451.424,559.395c1.271.279,4.742-3.391,5.29-3.945,0,0,2.929,4.276,3.141,4.693,0,0-4.626,3.707-4.754,5.129s-3.678-5.877-3.678-5.877" transform="translate(-400.238 -492.469)" fill="#fff" fill-rule="evenodd"/>
            <path id="Path_147192" data-name="Path 147192" d="M427,576.349a5.047,5.047,0,0,1-.533,1.8c-.206.144.385.833,1.025.887s1.566-.357,1.627-.968-.687-1.017-.726-1.552-1.268-.829-1.393-.164" transform="translate(-378.074 -510.659)" fill="#fdd2c2" fill-rule="evenodd"/>
          </g>
        </g>
        <g id="Group_57849" data-name="Group 57849" transform="translate(48.351 65.307)">
          <g id="Group_57848" data-name="Group 57848" clip-path="url(#clip-path-54)">
            <path id="Path_147193" data-name="Path 147193" d="M424.277,565.146c.535.775,1.821,3.251,2.725,2.279a2.38,2.38,0,0,0,.035-3.081c-.6-.708-3.3.029-2.76.8" transform="translate(-424.459 -565.408)" fill="#fdc4af" fill-rule="evenodd"/>
          </g>
        </g>
        <g id="Group_57856" data-name="Group 57856" transform="translate(0 0)">
          <g id="Group_57855" data-name="Group 57855" clip-path="url(#clip-path-2)">
            <path id="Path_147195" data-name="Path 147195" d="M406.017,546a1.475,1.475,0,0,0,2.059.9c.986-.406,1.112-2.207,1.172-2.831s.659-.442.759.036.33,2.063.99,2.571c.553.427,1.793.615,1.967-.465a7.834,7.834,0,0,0-1.321-5.293c-.639-1.1-2.84-1.376-4.064.243A8.759,8.759,0,0,0,406.017,546" transform="translate(-359.971 -478.789)" fill="#276296" fill-rule="evenodd"/>
            <path id="Path_147196" data-name="Path 147196" d="M432.653,522.207s-1.079-1.235-.721-2.064,1.691.043,1.384.934a2.288,2.288,0,0,1-.663,1.13" transform="translate(-382.892 -460.869)" fill="#276296" fill-rule="evenodd"/>
            <path id="Path_147197" data-name="Path 147197" d="M422.151,556.929c-.027-.543,0-.953,0-.953a2.274,2.274,0,0,0,1.414.3,4.618,4.618,0,0,0,1.334-.248,8.515,8.515,0,0,1-.013.975c.272-.264.587-.427.559.067-.043.78-.508,1.181-.729,1.079-.2.744-.575,1.4-1.308,1.4-.639,0-.959-.693-1.117-1.469-.249.045-.7-.352-.742-1.089-.029-.5.314-.329.607-.063" transform="translate(-373.745 -492.935)" fill="#fdd3c3" fill-rule="evenodd"/>
            <path id="Path_147198" data-name="Path 147198" d="M521.366,496.917a14.274,14.274,0,0,1-1.373.579c-.912.342-1.3.5-2.061.748s-1.94-.286-1.856-.6a.644.644,0,0,1,.118-.219,2.773,2.773,0,0,1,1.494-.854,17.823,17.823,0,0,0,3.078-.863c.483-.276.577.73.6,1.085,0,.075,0,.12,0,.12" transform="translate(-457.556 -439.463)" fill="#fdd2c2" fill-rule="evenodd"/>
            <g id="Group_57854" data-name="Group 57854" transform="translate(58.516 57.334)" style="mix-blend-mode: overlay;isolation: isolate">
              <g id="Group_57853" data-name="Group 57853">
                <g id="Group_57852" data-name="Group 57852" clip-path="url(#clip-path-56)">
                  <g id="Group_57851" data-name="Group 57851" transform="translate(0 0)">
                    <g id="Group_57850" data-name="Group 57850" clip-path="url(#clip-path-57)">
                      <rect id="Rectangle_20323" data-name="Rectangle 20323" width="5.452" height="1.72" transform="translate(-0.157 -0.026)" fill="url(#linear-gradient-8)"/>
                    </g>
                  </g>
                </g>
              </g>
            </g>
            <path id="Path_147200" data-name="Path 147200" d="M549.541,491.482c-.329.343-.907.4-.76.828s.777,1.671,1.049,1.536.884-.588.951-.907-.911-1.8-1.24-1.457" transform="translate(-486.535 -435.709)" fill="#7fa465" fill-rule="evenodd"/>
            <path id="Path_147201" data-name="Path 147201" d="M558.227,248.693c-1.343,1.112-2.978,2.955-4.231.8-.916-1.579.736-2.877,1.3-3.727a19.18,19.18,0,0,0,1.442-2.472c1.7-3.618,1.593-7.812,1.544-11.717-.035-2.771-.1-5.546-.282-8.311-.081-1.255-.361-2.488-.5-3.737a8.541,8.541,0,0,1-.1-1.628c.019-.231.05-.669.28-.638a7.434,7.434,0,0,1,2.322,1c3.343,1.77,3.014,4.651,3.705,8.482.878,4.864,1.548,10.312-.5,14.995a18.352,18.352,0,0,1-4.989,6.957" transform="translate(-490.94 -192.622)" fill="#f4db99" fill-rule="evenodd"/>
            <path id="Path_147202" data-name="Path 147202" d="M627.166,277.961a6.205,6.205,0,0,0-1.269,1.565c-.287.636.058,1.071.619.974s1.5-.454,1.564-.681-.67-2.064-.914-1.857" transform="translate(-554.837 -246.429)" fill="#fcd1c1" fill-rule="evenodd"/>
            <path id="Path_147203" data-name="Path 147203" d="M697.961,548.364a5.127,5.127,0,0,0,1.418-.663c2.19-1.2,3.214-3.994,2.713-7.009s-3.337-4.064-4.515-4.285c-3.247-.608-4.79,1.446-5.7,2.748-1.331,1.908-1.118,4.346.085,6.747a4.627,4.627,0,0,0,3.22,2.223l.18,6.676a2.915,2.915,0,0,1,.653.656l-.66.637.066.883c.2.2.707.675.707.675l-.608.725c.023.221.181,3.427.181,3.427l.657,1.495s.639-.017.728-.127c.264-.329,1.04-1.224,1.04-1.224s-.082-9.378-.167-13.586m-1.717-9.767a1.769,1.769,0,1,0,1.889,1.488,1.7,1.7,0,0,0-1.889-1.488" transform="translate(-612.621 -475.488)" fill="#ffb809" fill-rule="evenodd"/>
            <path id="Path_147204" data-name="Path 147204" d="M693.413,547.658a4.847,4.847,0,0,0,1.418-.488c2.19-1.2,3.214-3.994,2.713-7.009s-3.337-4.064-4.515-4.285c-3.247-.608-4.79,1.446-5.7,2.748-1.331,1.908-1.118,4.346.085,6.747a4.627,4.627,0,0,0,3.22,2.223l.18,6.676a2.913,2.913,0,0,1,.653.656l-.66.637.066.883c.2.2.707.675.707.675l-.608.725c.023.221.181,3.427.181,3.427s.49.836.855,1.371a.35.35,0,0,0,.56.077c.264-.329,1.009-1.3,1.009-1.3s-.082-9.553-.167-13.76m-1.717-9.592a1.769,1.769,0,1,0,1.889,1.488,1.7,1.7,0,0,0-1.889-1.488" transform="translate(-608.589 -475.017)" fill="#fdc63c" fill-rule="evenodd"/>
            <path id="Path_147205" data-name="Path 147205" d="M721.441,471.427c-2.651-1.75-.819-10.149,2.025-10.119-1.3-2.141-4.056.473-4.248,5.455-.1,2.482,1.479,5.485,2.222,4.664" transform="translate(-637.665 -408.334)" fill="#ff8409" fill-rule="evenodd"/>
          </g>
        </g>
      </g>
    </g>
  </g>
</svg>
